<?xml version="1.0" encoding="UTF-8"?>
<!-- Created with Inkscape (http://www.inkscape.org/) -->
<svg width="800" height="382.46" version="1.1" viewBox="0 0 800 382.46" xml:space="preserve" xmlns="http://www.w3.org/2000/svg"><g transform="matrix(1.3333 0 0 -1.3333 0 1122.5)"><g transform="matrix(1.1321 0 0 1.1321 0 -111.22)"><g transform="translate(-46.829 435.48)"><g transform="translate(232.95 320.21)"><path d="m0 0v23.399c0 10.272 11.431 16.407 19.997 10.739 5.839-3.865 11.675-7.726 17.583-11.635 7.686-5.086 7.712-16.367 0.045-21.483-5.87-3.918-11.703-7.811-17.579-11.734-8.566-5.716-20.046 0.416-20.046 10.714" fill="#f9b03d"/></g><g transform="translate(103.33 175.06)"><path d="m0 0v-21.159h-56.323v96.168h21.981v-75.009z" fill="#f9b03d"/></g><g transform="translate(171 175.06)"><path d="m0 0v-21.159h-60.45v96.168h59.757v-21.158h-37.776v-15.936h34.342v-20.884h-34.342v-17.031z" fill="#f9b03d"/></g><g transform="translate(216.94 189.62)"><path d="m0 0-11.265 35.31-11.264-35.31zm6.589-20.605h-35.718l-4.81-15.113h-24.039l32.697 96.168h28.022l32.697-96.168h-24.039z" fill="#f9b03d"/></g><g transform="translate(262.77 204.73)"><path d="m0 0h16.489c6.04 0 10.985 5.358 10.985 12.367 0 7.002-4.945 12.361-10.985 12.361h-16.489zm10.437-19.234h-10.437v-31.596h-21.981v96.168h38.47c18.267 0 32.966-14.698 32.966-32.971 0-11.818-7.137-22.529-17.72-27.888l20.472-35.309h-23.637z" fill="#f9b03d"/></g><g transform="translate(381.53 250.07)"><path d="m0 0v-96.168h-16.489l-37.094 52.206v-52.206h-21.98v96.168h16.488l37.094-52.206v52.206z" fill="#f9b03d"/></g><g transform="translate(491.62 250.01)"><path d="m0 0v-96.343h-16.519l-37.161 52.301v-52.301h-22.02v96.343h16.518l37.161-52.301v52.301z" fill="#272a5b"/></g><g transform="translate(576.82 199.31)"><path d="m0 0c0-28.39-19.766-45.634-45.764-45.634-29.184 0-50.148 21.488-50.148 48.151 0 26.932 21.364 48.421 48.69 48.421 17.768 0 32.759-8.754 40.59-21.224l-18.049-10.348c-3.844 6.103-12.193 10.877-22.681 10.877-15.651 0-27.326-11.541-27.326-27.856 0-15.785 11.146-27.326 29.183-27.326 12.335 0 20.436 5.438 23.752 14.328h-24.81v18.566h46.563z" fill="#272a5b"/></g><g transform="translate(194.13 327.94)"><path d="m0 0c0-43.737-30.355-70.303-70.282-70.303-44.82 0-77.017 33.105-77.017 74.18 0 41.492 38.107 74.597 80.073 74.597 27.287 0 45.015-13.487 57.041-32.698l-27.718-15.94c-5.905 9.401-18.727 16.756-34.834 16.756-24.035 0-41.967-17.78-41.967-42.914 0-24.32 17.119-42.099 44.82-42.099 18.943 0 31.384 8.378 36.476 22.072h-38.102v28.605h71.51z" fill="#272a5b"/></g><g transform="translate(295.18 331.9)"><path d="m0 0c0 25.402-18.275 42.255-41.428 42.255-23.154 0-41.445-16.853-41.445-42.255 0-25.387 18.291-42.239 41.445-42.239 23.153 0 41.428 16.852 41.428 42.239m-115.37 0c0 41.841 38.406 73.941 79.238 73.941 40.817 0 68.63-32.1 68.63-73.941 0-41.842-33.109-73.926-73.925-73.926-40.833 0-73.943 32.084-73.943 73.926" fill="#272a5b"/></g><g transform="translate(398.92 247.04)"><path d="m0 0h8.218c0.677 0 1.225-0.549 1.225-1.225v-76.101 1e-3c0-0.243-0.07-0.469-0.192-0.659l-9.251-15.043-9.251 15.043c-0.121 0.19-0.191 0.416-0.191 0.658v76.101c0 0.676 0.547 1.225 1.224 1.225z" fill="#f9b03d"/></g><g transform="translate(407.14 246.53)"><path d="m0 0h-16.436l-0.046 1e-3c-0.177-0.012-0.338-0.09-0.458-0.21-0.13-0.129-0.21-0.308-0.21-0.506h-1e-3l1e-3 -6e-3 1e-3 -75.899v-0.205c0-0.068 9e-3 -0.132 0.027-0.191 0.019-0.068 0.048-0.13 0.083-0.184l5e-3 -6e-3 8.816-14.337 8.817 14.337 5e-3 7e-3c0.037 0.058 0.065 0.12 0.083 0.182 0.017 0.059 0.027 0.121 0.028 0.189v76.107l1e-3 4e-3v3e-3h-1e-3c0 0.197-0.08 0.376-0.209 0.505-0.128 0.128-0.303 0.207-0.496 0.21zm-8.218 1.021h8.218c0.479 0 0.913-0.194 1.228-0.507 0.314-0.315 0.508-0.749 0.508-1.228l-2e-3 -5e-3v-2e-3h2e-3v-76.094c0-0.166-0.024-0.33-0.07-0.486-0.047-0.162-0.116-0.312-0.202-0.448l-9.247-15.036-0.435-0.706-0.433 0.706-9.251 15.043 1e-3 1e-3c-0.087 0.137-0.155 0.285-0.201 0.44-0.044 0.156-0.069 0.32-0.069 0.486v76.094h1e-3l-1e-3 6e-3c0 0.48 0.194 0.914 0.508 1.228 0.313 0.313 0.747 0.507 1.227 0.508z" fill="#272a5b"/></g><g transform="translate(398.92 247.04)"><path d="m0 0h4.523-1e-3c0.374 0 0.675-0.549 0.675-1.225v-76.101 1e-3c0-0.243-0.039-0.469-0.105-0.659l-5.092-15.043-5.091 15.043c-0.067 0.19-0.106 0.416-0.106 0.658h1e-3v0.195l-1e-3 75.9v6e-3c0 0.676 0.302 1.225 0.675 1.225z" fill="#272a5b"/></g><g transform="translate(403.45 246.53)"><path d="m0 0h-9.045l-1e-3 1e-3c-0.012-2e-3 1e-3 -0.037-0.03-0.095-0.082-0.148-0.133-0.367-0.133-0.621v-76.118c1e-3 -0.088 8e-3 -0.17 0.02-0.245 0.014-0.087 0.033-0.163 0.055-0.227l3e-3 -6e-3 4.609-13.617 4.609 13.617 3e-3 6e-3c0.023 0.068 0.043 0.144 0.056 0.227h-1e-3c0.011 0.075 0.019 0.157 0.019 0.245v76.112l2e-3 4e-3v3e-3h-2e-3c0 0.253-0.051 0.472-0.132 0.621-0.031 0.056-0.019 0.091-0.03 0.093zm-4.522 1.021h4.523c0.386 0 0.71-0.238 0.922-0.624 0.162-0.294 0.263-0.688 0.263-1.111l-2e-3 -5e-3v-2e-3h2e-3v-76.094c0-0.144-0.012-0.287-0.035-0.424l-1e-3 -1e-3c-0.022-0.14-0.056-0.273-0.099-0.398h1e-3l-5.092-15.043h-0.965l-5.091 15.043h1e-3c-0.045 0.129-0.079 0.263-0.101 0.399-0.022 0.137-0.033 0.28-0.033 0.424v76.1c0 0.424 0.099 0.818 0.261 1.112 0.213 0.386 0.537 0.624 0.923 0.624h0.212z" fill="#272a5b"/></g><g transform="translate(403.45 246.53)"><path d="m0 0h-9.045l-1e-3 1e-3c-0.012-2e-3 1e-3 -0.037-0.03-0.095-0.082-0.148-0.133-0.367-0.133-0.621v-76.118c1e-3 -0.088 8e-3 -0.17 0.02-0.245 0.014-0.087 0.033-0.163 0.055-0.227l3e-3 -6e-3 4.609-13.617 4.609 13.617 3e-3 6e-3c0.023 0.068 0.043 0.144 0.056 0.227h-1e-3c0.011 0.075 0.019 0.157 0.019 0.245v76.112l2e-3 4e-3v3e-3h-2e-3c0 0.253-0.051 0.472-0.132 0.621-0.031 0.056-0.019 0.091-0.03 0.093zm-4.522 1.021h4.523c0.386 0 0.71-0.238 0.922-0.624 0.162-0.294 0.263-0.688 0.263-1.111l-2e-3 -5e-3v-2e-3h2e-3v-76.094c0-0.144-0.012-0.287-0.035-0.424l-1e-3 -1e-3c-0.022-0.14-0.056-0.273-0.099-0.398h1e-3l-5.092-15.043h-0.965l-5.091 15.043h1e-3c-0.045 0.129-0.079 0.263-0.101 0.399-0.022 0.137-0.033 0.28-0.033 0.424v76.1c0 0.424 0.099 0.818 0.261 1.112 0.213 0.386 0.537 0.624 0.923 0.624h0.212z" fill="none" stroke="#f9b03c" stroke-miterlimit="10" stroke-width=".25"/></g><g transform="translate(408.34 169.43)"><path d="m0 0c-0.032-0.136-0.087-0.263-0.16-0.376l-9.251-15.043-9.251 15.043c-0.072 0.113-0.127 0.24-0.159 0.376z" fill="#f9b03d"/></g><g transform="translate(398.92 154.99)"><path d="m0 0 8.569 13.936h-17.138zm9.905 14.329c-0.023-0.1-0.052-0.193-0.089-0.277-0.037-0.087-0.081-0.171-0.13-0.251l-9.251-15.043-0.435-0.706-0.434 0.706-9.251 15.043c-0.05 0.08-0.094 0.164-0.13 0.251-0.037 0.084-0.067 0.177-0.09 0.276l-0.048 0.628h19.907z" fill="#272a5b"/></g><path d="m408.37 233.47h-18.886v5.349h18.886z" fill="#f5f5f5"/><path d="m407.86 238.31h-17.864v-4.327h17.864zm1.022 0.51-1e-3 -5.348 1e-3 -0.511h-19.907v6.369h0.51l18.886 1e-3 0.51-1e-3z" fill="#272a5b"/><g transform="translate(390.69 249.51)"><path d="m0 0h16.468c0.666 0 1.206-0.548 1.206-1.225v-9.466h-18.886v9.466c0 0.677 0.54 1.225 1.205 1.225z" fill="#eb5b5d"/></g><g transform="translate(407.16 249)"><path d="m0 0-16.468-1e-3 -7e-3 1e-3c-0.191 0-0.365-0.079-0.49-0.205-0.123-0.126-0.201-0.301-0.204-0.496v-8.971h17.864v8.95l1e-3 4e-3v3e-3h-1e-3c0 0.2-0.078 0.381-0.205 0.51-0.115 0.117-0.272 0.193-0.446 0.205zm-16.468 1.021h16.468v-1e-3h2e-3c0.474 0 0.902-0.197 1.213-0.512 0.309-0.315 0.502-0.747 0.502-1.223l-2e-3 -5e-3v-2e-3h1e-3l1e-3 -9.46-1e-3 -0.51h-19.906v9.977c0 0.476 0.191 0.908 0.501 1.223 0.311 0.316 0.741 0.513 1.214 0.513l7e-3 -1e-3z" fill="#272a5b"/></g><g transform="translate(402.13 159.22)"><path d="m0 0-3.203-5.208-3.202 5.208z" fill="#afbec5"/></g><g transform="translate(398.92 154.99)"><path d="m0 0 2.29 3.724h-4.579zm3.638 3.966-3.203-5.208-0.435-0.706-0.434 0.706-3.203 5.208-0.478 0.778h8.231z" fill="#272a5b"/></g></g></g></g></svg>
