<svg xmlns="http://www.w3.org/2000/svg" viewBox="0 0 93.24 93.24">
    <g id="Layer_2">
        <g id="Layer_1-2">
            <path style="fill:#f8af3c;" d="M93.24,46.62A46.62,46.62,0,1,1,46.62,0,46.51,46.51,0,0,1,93.24,46.62Z"/>
            <path style="fill:#ffa697;" d="M51.26,33.72s7.51-3.56,8.34,2.33c.95,6.83-7.24,7.21-7.24,7.21Z"/>
            <path d="M55.28,39.79a.46.46,0,0,1-.23-.06.49.49,0,0,1-.21-.67l2.38-4.47a.5.5,0,0,1,.68-.21.51.51,0,0,1,.21.68l-2.39,4.47A.51.51,0,0,1,55.28,39.79Z"/>
            <path d="M56,38.41a.49.49,0,0,1-.5-.49.5.5,0,0,1,.49-.51l2.18,0a.52.52,0,0,1,.51.49.49.49,0,0,1-.49.51l-2.18,0Z"/>
            <path style="fill:#7772d3;" d="M86.42,70.92a46.58,46.58,0,0,1-11.19,12.5c-.29.24-.58.46-.88.67A46.67,46.67,0,0,1,29,89.8l-.93-.4A46.58,46.58,0,0,1,11.43,77.19C13.3,71.38,16.79,65.86,23,62.36c15.88-8.93,39.66-8.93,50.24-3.91C79.75,61.53,84,67.05,86.42,70.92Z"/>
            <path d="M54.34,26.94s5-8,4-11.43-5.47-.07-5.47-.07-1-7.37-6.51-5.94C39,11.41,31.76,24.27,31.76,24.27s-3.72-.93-5,2.33c-1.47,3.79-.18,8,2.16,11.84s8.7.66,8.7.66Z"/>
            <path style="fill:#ffa697;" d="M38.92,50.13l.27,8.78a16.59,16.59,0,0,0,7.22,1.61c5.37-.12,7.1-2.48,7.1-2.48L53,46.65Z"/>
            <path d="M38.92,49.93s3.39,6.59,9.45,5.44c4.88-.92,4.68-7.84,4.68-7.84Z"/>
            <path style="fill:#ffa697;" d="M54.34,26.94s2.69,15.26,0,21.22C51.26,54.85,43.45,54,40.65,52a16.84,16.84,0,0,1-5.41-7s-5,1.2-6.84-2.85C26.46,37.87,29.47,34.26,32,34s2.83.14,2.83.14l-.92-4.58S48.56,11.88,54.34,26.94Z"/>
            <path d="M34.81,34.1a11.53,11.53,0,0,0,6.95-2.82c4.33-3.44,3.65-9.12,3.65-9.12s7.88,4.52,9.84,10.47,1.93-14.25-6.79-13.52S28.12,25.53,34.81,34.1Z"/>
            <path d="M34.22,40.84a.51.51,0,0,1-.31-.11l-4-3.19a.5.5,0,1,1,.62-.78l4,3.19a.49.49,0,0,1,.08.7A.51.51,0,0,1,34.22,40.84Z"/>
            <path d="M30.65,41.59a.5.5,0,0,1-.39-.18.52.52,0,0,1,.07-.71l2.23-1.81a.51.51,0,0,1,.71.07.5.5,0,0,1-.08.7L31,41.48A.56.56,0,0,1,30.65,41.59Z"/>
            <path d="M42.56,36.37a.5.5,0,0,1-.5-.46l-.24-2.46a.5.5,0,1,1,1-.1l.24,2.47a.49.49,0,0,1-.45.54Z"/>
            <path d="M52.16,36a.51.51,0,0,1-.5-.46l-.24-2.46a.5.5,0,1,1,1-.1l.25,2.47a.5.5,0,0,1-.45.54Z"/>
            <path d="M48.64,42.11h-.08a.51.51,0,0,1-.42-.57,13,13,0,0,0-.73-6.64.5.5,0,0,1,.91-.41,13.82,13.82,0,0,1,.81,7.2A.49.49,0,0,1,48.64,42.11Z"/>
            <path d="M53,30.85a.51.51,0,0,1-.31-.11,3.84,3.84,0,0,0-2.31-.59.5.5,0,0,1-.52-.47.49.49,0,0,1,.47-.53,4.91,4.91,0,0,1,3,.81.49.49,0,0,1,.08.7A.51.51,0,0,1,53,30.85Z"/>
            <path d="M41.74,31.22a.47.47,0,0,1-.39-.19.5.5,0,0,1,.08-.7,5,5,0,0,1,3-.76.51.51,0,0,1,.47.53.5.5,0,0,1-.54.47,3.88,3.88,0,0,0-2.31.55A.5.5,0,0,1,41.74,31.22Z"/>
            <path d="M33.64,34.17S35.4,38.64,36,38.43s-.68-7.31-2.4-7.53S33.64,34.17,33.64,34.17Z"/>
            <path style="fill:#ffbf69;" d="M46.45,61a23.83,23.83,0,0,1-9-2.07.5.5,0,0,1,.43-.9c.13.06,12.47,5.85,17.12-2.7a.5.5,0,1,1,.88.48C53.65,59.84,50,61,46.45,61Z"/>
            <path d="M46.82,46a2.64,2.64,0,0,1-2.51-1.49.5.5,0,0,1,.28-.65.49.49,0,0,1,.65.27c.06.13.61,1.26,2.49.73a.5.5,0,1,1,.27,1A4.42,4.42,0,0,1,46.82,46Z"/>
            <path style="fill:#ffbf69;" d="M30.14,83.87,29,89.8l-.93-.4,1.09-5.72a.5.5,0,0,1,.59-.4A.49.49,0,0,1,30.14,83.87Z"/>
        </g>
    </g>
</svg>