<?xml version="1.0" encoding="UTF-8"?>
<svg width="2437.8" height="2135.9" version="1.1" viewBox="0 0 2437.8 2135.9" xmlns="http://www.w3.org/2000/svg">
 <g transform="translate(-1602.2 -701.06)" style="isolation:isolate" data-name="Layer 2">
  <g data-name="Layer 1">
   <path style="fill:#ffb27d;" d="m2036.5 2202s24.5 2.82 43.45 1.68c23.72-1.42 53-2 58.38 4.3s5.43 6.32-5.11 11.88c-8.2 4.33-39.83 18.28-61.2 11.67s-48.65-5.27-48.65-5.27z"/>
   <path style="fill:#7aa9e2;" d="m1775 1968.7s45.64 226 100 243.31c26.81 8.51 144 24.46 178.38 24.71 0 0 8-7.3 4.29-34.89 0 0-124-37.33-142.67-60.53-27.8-34.53 7.16-148.25-27-180.19s-89.38-43.28-113 7.59z"/>
   <rect style="fill:#96c1ed;" x="1784.7" y="2422.2" width="30.58" height="388.88" rx="7.92"/>
   <path style="fill:#96c1ed;" d="m1662.9 2836.7c14.37-29.75 70.31-51.94 137.12-51.94s122.75 22.19 137.12 51.94z"/>
   <rect style="fill:#96c1ed;" x="1695.5" y="2720.1" width="208.9" height="15.67" rx="2.54"/>
   <path style="fill:#163560;" d="m1782.2 2386.8a400.55 400.55 0 0 0 31.38 44.91c34.54 43.59 72.13 79.54 78.68 113.52a154.29 154.29 0 0 0 6.07 21.75c2.73 7.78 6.11 16 10 24.42 14.65 31.83 36.56 67.5 58.45 99.92 37.82 56 73.39 102.82 73.39 102.82l65.23-2.78c-2.62-6.54-31.07-83.93-69.12-178.5-15.46-38.39-31.89-79.23-47.75-118.61q-3.16-7.89-6.31-15.69c-4.85-12.05-9.62-23.91-14.28-35.47-35.73-88.8-64.19-159.51-64.19-159.51s-142.83-54.11-157.66-19c-12.21 28.86-2.25 57.18 36.11 122.22z"/>
   <path style="fill:#163560;" d="m2042.2 2782.3s3.33 53.83 13.75 54.6c1.38 0.1 52.81 0.1 52.81 0.1l65.66-0.38s-0.43-15.82-19.62-19.16-51.32-16.84-62.94-42.2c-12.23-26.69-49.66 7.04-49.66 7.04z"/>
   <path style="fill:#163560;" d="m1891.2 2628.5s-45.37 29.16-41 38.62c0.58 1.26 25.66 46.17 25.66 46.17l32.34 57.14s13.6-8.09 7.16-26.48-10.31-53 6.16-75.52c17.37-23.69-30.32-39.93-30.32-39.93z"/>
   <path style="fill:#1c468a;" d="m1955.1 2259.5s193.33 138.87 214.44 182.5c16.49 34.07-246.21 250.64-246.21 250.64s-38.27-37.9-43.27-56.24c0 0 90.49-130.05 162.2-172.27 21.34-12.57-256-43.26-286-90s-13.48-108.53-13.48-108.53z"/>
   <rect style="fill:#ee9849;" x="1602.2" y="2374.2" width="393.59" height="89.83" rx="27.46"/>
   <path style="fill:#ffb27d;" d="m1869.7 1866.5a101.21 101.21 0 0 1 27.31 24.75c-42.94 11.12-114.14-28.68-114.14-28.68s27.64-18.58 37.88-59.39c0.52-2.06 1-4.18 1.41-6.34a128.12 128.12 0 0 0 2.32-22.34l19.73 17.67 32.81 29.39s-0.74 12.2-4.85 33.18q-1.06 5.49-2.47 11.76z"/>
   <path style="fill:#b0d4ff;" d="m1958 2251.9a11.62 11.62 0 0 1-0.38 1.33c-4.13 11.61-66.65 51-108.87 66.67-26.35 9.78-117.79 31.61-123.8 12.81-7-21.8 18.57-180.68 12.41-263.43-7.25-101.15 20.76-193.21 59.69-223.26 2.94-2.16 8.77 3.59 25.63 11.59 15.58 7.39 32.79 9.49 47.36 6.3l13 11.22c18.07 16.22 37.89 38.38 46.89 72.34 5.5 20.84 9.66 53.81 12.75 90.87 1.17 14.36 2.22 29.35 3.11 44.47 1.38 24.1 2.6 48.4 3.19 71.51v1.33 0.84c0.25 2.33 0.29 4.87 0.31 7.2s0.13 4.67 0.19 7c0.41 18.08 0.4 34.87 1 49.39a52.3 52.3 0 0 0 3.34 16.65c1.6 4.24 3.28 7.35 4 10.33a10.8 10.8 0 0 1 0.18 4.84z"/>
   <path style="fill:#ed975d;" d="m1877 1821.6s-0.74 12.2-4.85 33.18c-32-10.36-46.56-39.29-51.42-51.56-1.38-3.47-2-5.62-2-5.62l3.39-0.72 22.05-4.67z"/>
   <path style="fill:#ffb27d;" d="m1886.8 1831.9s-70.8-1.8-69-45.87-6.13-74 39.15-74.71 53.37 16.46 56.35 31.32-8.04 88.59-26.5 89.26z"/>
   <rect style="fill:#1c468a;" transform="rotate(-72 2169.6 2131.7)" x="2084.7" y="2128.4" width="169.62" height="6.48"/>
   <rect style="fill:#1c468a;" transform="rotate(-88.78 2057.4 2206.1)" x="2052.2" y="2117.1" width="10.65" height="177.99"/>
   <path style="fill:#2c3a64;" d="m1809 1704.1c-0.45-0.74-1.65-1.49-4.49-2.15a11.8 11.8 0 0 1 5.63-0.56c1.31-3.89 4.68-10.57 11.85-11.07a8.72 8.72 0 0 0-5.27 5.47c9.4-6.76 27.49-9.68 74 2.41 61.31 15.94 33.76 52.12 24.86 55.44s-26.85-13.29-42.06-14.76-21.9 19.7-27.52 21.77-2.68-2.83-9-7.17-9 7-8.34 14.73-10.52 15.88-10.52 15.88l-7.74-12c-7.73-12-9-57.2-3-65.72z"/>
   <path style="fill:#91b8ef;" d="m1953.9 2236.7c-17.19-2.78-59.65-11.29-90.48-30.58-55.65-34.84-88.44-211.61-88.44-211.61l87.17 111.62 87.27 63.88 0.12 0.65c0.41 18.08 0.4 34.87 1 49.39a52.3 52.3 0 0 0 3.36 16.65z"/>
   <path style="fill:#ffb27d;" d="m2036.8 2154.8a24.81 24.81 0 0 0 13.39 0c7.22-2.06 31.94-8.24 36.06-6.18s17 12.36 20.09 14.43 7.73 10.81 7.73 10.81c-2.85 2.08-10.55-5-14.41-5.5s-34.79 10.4-43.28 9.37-21.38-4.9-21.38-4.9z"/>
   <path style="fill:#ffb27d;" d="m2088.1 2164.4c0 0.47 8.45 13.63 16.9 11.26l-7.23-9.9z"/>
   <path style="fill:#ffb27d;" d="m2050.2 2154.8s10.64-7.06 14.37-10.68c0 0 1.71 1.14 1.53 2.71-0.29 2.63-3.61 7-3.61 7z"/>
   <path style="fill:#b0d4ff;" d="m1863.5 1906.4c-45.81-39.2-114.57 5.17-98.08 63.16 19.12 67.24 56 178.17 94 188.94 27.06 7.68 144.67 20 179.06 19.17 0 0 6.37 2.43 1.82-25 0 0-129-39.84-143.1-66.06-7.57-14 2.56-148.39-32.62-179.26z"/>
   <path style="fill:#ed7d2b;" d="m3831 1824.8s88.86 92.12 93.05 126.8-42.56 88.8-42.56 88.8z"/>
   <path style="fill:#163560;" d="m3790.8 2779.6s-3.14 48.87-12.6 49.55c-1.26 0.09-47.95 0-47.95 0l-59.62-0.48s0.42-14.36 17.86-17.36 46.62-15.18 57.23-38.19c11.15-24.21 45.08 6.48 45.08 6.48z"/>
   <path style="fill:#163560;" d="m3923.6 2779.9s-3.13 48.87-12.59 49.55c-1.26 0.09-48 0-48 0l-59.61-0.48s0.42-14.36 17.86-17.36 46.62-15.18 57.22-38.19c11.2-24.22 45.12 6.48 45.12 6.48z"/>
   <path style="fill:#163560;" d="m3726 2254.2s15.37 99.76 73.15 276.89 65.54 253.81 65.54 253.81l62.39-1.61s0.95-193.45-25.66-282.53-5.08-320.91-5.08-320.91z"/>
   <path style="fill:#1c468a;" d="m3695.7 2184.9s-2.53 150.26 23.07 334.82 16.61 262.85 16.61 262.85l62.27 2.21s37.61-184.49 27.14-276.86 51.65-316.77 51.65-316.77z"/>
   <path style="fill:#ffb27d;" d="m3817 1833.5-33.22 21.67-47.93-9c0.67-3.87 3.87-19.91 6.79-34.43 0.17-0.86 0.35-1.72 0.51-2.56l4.65-23 44.83-19.66 16.71-7.33c0 0.26-1.32 13.72-1.5 15.68-3.17 34.89 9.16 58.63 9.16 58.63z"/>
   <path style="fill:#ed7d2b;" d="m3748.2 1822.4c0.93-0.39 57.78-17 63.94-15s9.8 14 9.8 14l-93 20.81s7.38-14.84 19.26-19.81z"/>
   <path style="fill:#f99746;" d="m3900.4 2203.9c-9.73 43.91-170 48.77-211.22 8.81-4.69-4.56-4.88-25.71-3-54.21 3.59-55.7 14.9-139.47 15.43-182.28 0.25-20.67 3.14-41.81 7-61a495.58 495.58 0 0 1 20.49-73s78.33-25.13 93-20.8c70.41 20.89 88.02 338.62 78.3 382.48z"/>
   <path style="fill:#ed7d2b;" d="m3686.1 2158.5c3.59-55.7 14.9-139.47 15.43-182.28 0.25-20.67 3.14-41.81 7-61l47.11-8.2s45.59 188.13-69.54 251.48z"/>
   <path style="fill:#ffb27d;" d="m3711.8 2080.9s3.19 7.68-3.56 12.81-11.14 13.47-9.61 19.58 16.29 16.08 21.42 14.49 15.58-9.61 14.46-12.83 7.08-28.21-5.4-37.87-17.31 3.82-17.31 3.82z"/>
   <path style="fill:#f99746;" d="m3765 1831s-45.94 8.49-82.65 62.34-60.87 93.88-54.17 113.33 68 87 78.59 87 27.7-7.65 28.7-25c0 0-43.12-64.92-34.57-74.61 3.65-4.15 56.26-46.67 63.71-27.39 12.31 31.91 0.39-135.67 0.39-135.67z"/>
   <path style="fill:#fca56b;" d="m3804.5 1775.5c-9.87 16.64-46.55 31-61.84 36.23 0.17-0.86 0.35-1.72 0.51-2.56l4.65-23 44.83-19.66c9.9-0.09 15.92 2.14 11.85 8.99z"/>
   <path style="fill:#ffb27d;" d="m3731 1783.4s72.09 22.66 85.51-22.45 31.76-72.57-13.7-88.94-59.56-1.84-67.71 12.13-22.54 92.2-4.1 99.26z"/>
   <path style="fill:#163560;" d="m3737.9 1679.8s4.48 52.54 15.35 50.28 20.72-3.93 19.1 11.9-16.73 34.09 16.74 37 81.79-83.36 72.63-99.73c-26.44-47.26-162.05-57.07-123.82 0.55z"/>
   <path style="fill:#ffdaa9;" d="m2967.1 2002.2a17.83 17.83 0 0 0 0.28 21.15 8.74 8.74 0 0 1 1 1.61c87.2 52.39 348.74 264.33 348.74 413.72v309.47h-789.38v-309.59c0-150.34 265.12-365.66 350.39-415.21a18.08 18.08 0 0 0 3.64-10.68 18.64 18.64 0 0 0-3.64-10.84c-85.49-50.66-350.41-264.38-350.41-414.72v-309.48h789.35v309.6c0.02 150.1-264.23 364.96-349.97 414.97z"/>
   <path style="fill:#f99746;" d="m3362.4 2827.9h-886.19v-52.26a27.46 27.46 0 0 1 27.46-27.46h832.38a26.33 26.33 0 0 1 26.33 26.33z"/>
   <path style="fill:#ffce8d;" d="m2753.7 2457.8c-4 69.27 9.13 218.68 7.94 290.44h-233.89v-309.59c0-150.34 265.12-365.66 350.39-415.21a18.08 18.08 0 0 0 3.64-10.68 18.64 18.64 0 0 0-3.64-10.84c-85.49-50.66-350.41-264.38-350.41-414.72v-309.48h156.47l111.69 30.57v244.76s-11.06 70.5 16.63 139.73 87.16 291.37 86.24 320.22-138.13 326.05-145.06 444.8z"/>
   <path style="fill:#f8af3c;" d="m3214.8 1483.4c-47.85 0.73-130.12 9.35-263.21 42.93-91.12 23-248.24 5.67-331.34-6.23a48.35 48.35 0 0 0-55.24 47.9v35.67c0 98.28 264.45 311.18 334.37 365.76a43.62 43.62 0 0 1 16.8 34.39v546.55a57.08 57.08 0 0 1-24.5 46.74c-55 38.49-147.66 151.12-147.66 151.12h350.47s-94-108.7-146.73-149a48.64 48.64 0 0 1-19.15-38.62v-556.97a44 44 0 0 1 16.51-34.36c68.56-54.9 327.23-268.59 327.23-366.8v-62.39a56.7 56.7 0 0 0-57.55-56.69z"/>
   <path style="fill:#f99746;" d="m3335 1308.2h-832.51a26.33 26.33 0 0 1-26.33-26.33v-53.39h886.19v52.41a27.31 27.31 0 0 1-27.35 27.31z"/>
   <polygon style="fill:#9ec3f6;" points="1823.6 1420.8 1811.3 1445.8 2018.9 1475.5 1881.1 1381.5 1874.1 1411.6"/>
   <polygon style="fill:#cde0fb;" points="1846.1 1386.4 1676.8 1377.9 2018.9 1475.5"/>
   <polygon style="fill:#cde0fb;" points="2018.9 1475.5 1912.3 1328.7 1881.1 1381.5"/>
   <path style="fill:#233862;" d="m2864.6 1190.5c-18.48 32.17-41.73 44.58-41.73 44.58h-96.71s152.54-69.09 138.44-44.58z"/>
   <path style="fill:#ffb27d;" d="m2790.4 1439.4c-2.52 2.89-2.84 6.11-1.59 9.56 2.31 6.37 9.93 13.49 18.78 20.6 1.13 0.91 2.14 1.74 3 2.51l0.68 0.61 0.52 0.47c8.26 7.61 5.15 9.35 20 24.79 16.91 17.6 28.55 17.91 31.87 16.31 2.8-1.36-2.9-10.7-9.2-21.18l-0.92-1.53-2.51-4.21c-7.39-12.63-5.5-18.55-3.74-37.34 1.42-15.26 23.75-85.28 23.75-85.28l-32.41-5.58s-9.76 55.75-20.51 64.34c-5.75 4.58-12.19 4.63-17.71 8-0.39 0.23-0.78 0.47-1.15 0.72a42.46 42.46 0 0 0-8.86 7.21z"/>
   <path style="fill:#233862;" d="m2790.4 1439.4c-2.52 2.89-2.84 6.11-1.59 9.56 2.82 6.37 10.25 13.45 18.81 20.54 1.12 0.92 2.11 1.78 3 2.57l0.68 0.61 0.52 0.47c8.26 7.61 5.15 9.35 20 24.79 16.91 17.6 28.55 17.91 31.87 16.31 2.8-1.36-2.9-10.7-9.2-21.18a72 72 0 0 1-30.15-22.22c-10.18-13-17-29.68-23.9-39.35-0.39 0.23-0.78 0.47-1.15 0.72a42.46 42.46 0 0 0-8.89 7.18z"/>
   <path style="fill:#ffb27d;" d="m3051.7 1419.2c2 10 16.26 8.33 32.19 4.44s12.15 0.74 34.82-1.77 29.54-11 30.23-14.34c0.62-3-10.58-4-22.6-5.43l-4.55-0.54c-13.56-1.7-23.5-10.46-35.82-17.65-11.67-6.81-29.09-34.56-29.09-34.56l-31.09 2.47s16.31 24.78 22.62 35.55c3.71 6.34 3.52 14.72 3.05 21.19a39.93 39.93 0 0 0 0.24 10.64z"/>
   <path style="fill:#233862;" d="m3083.8 1423.6c15.93-3.89 12.15 0.74 34.82-1.77s29.54-11 30.23-14.34c0.62-3-10.58-4-22.6-5.43l-0.11 0.23a63.92 63.92 0 0 1-32.47 10.09c-15.38 0.38-31.67-4-42.3-3.86a39.93 39.93 0 0 0 0.24 10.64c2.01 10 16.26 8.33 32.19 4.44z"/>
   <path style="fill:#233862;" d="m2932.5 1220.4-29.07 78.21-37.94 102.12a61.33 61.33 0 0 1-20.16-1.84c-9.08-2.63-19.5-9.49-19.5-9.49s10.54-109.65 30.19-172.6c5-16.15 10.69-29.22 16.91-36.58 30.48-36.01 59.57 40.18 59.57 40.18z"/>
   <path style="fill:#2b478b;" d="m2903 1096.1c-19.05-6.14-73.36 1.75-127.91 12.43l-11.43-18.84-117.84-9.21s-38.88 86.24-17.59 141.18c3.12 8.08 10.87 11.49 21.47 11.66 0 0 70.32 1.72 93.09 1.72 58.61 0 124-40.29 132.49-42 13.85-2.77 19.4 24.94 33.25 54s130.18 128.92 130.18 128.92 17.89 0.18 25.27-2.59c7.95-3 10.86-6.85 10.86-6.85s-128.94-256.56-171.84-270.42z"/>
   <path style="fill:#233862;" d="m2751.1 743.68a41.75 41.75 0 0 0-22.65-5.85 68.43 68.43 0 0 1-11.26-0.74c-44.65-6-71.53 58.89-73.11 78.55-2.91 36.24-22.08 41.76-49.07 64.46-54.1 45.51-38.24 98.39-8.65 118 17.75 11.79 49 0 49 0 0.44 0.31 85.57-47.59 127.53-70.7 62.95-8.9 13.49-168.67-11.79-183.72z"/>
   <path style="fill:#ffb27d;" d="m2727.8 907.77c0.18 0.12-20.65 7.24-34.58 1.07-13.1-5.79-23-27.35-22.83-27.36 6-0.28 12.5-5.49 17.54-39.69l2.54 0.91 42.68 15.36s-3.09 13.69-5.09 26.73c-1.69 10.95-2.59 21.44-0.26 22.98z"/>
   <path style="fill:#ed975d;" d="m2733.1 858.06s-3.09 13.69-5.09 26.73c-24.52-4.41-34.14-28.83-37.59-42.09z"/>
   <path style="fill:#ffb27d;" d="m2739.5 871.65s-58.4-7.83-53-44.12 1.57-61.74 39.08-58.27 42.67 18.4 43.8 31-14.55 72.5-29.88 71.39z"/>
   <path style="fill:#233862;" d="m2767.3 780.32s-37.38 32.21-62.81 34.81-35-5.57-35-5.57a99.25 99.25 0 0 0 24-32.52 17.88 17.88 0 0 1 14.74-10.54c18.11-1.56 52.53-2.28 59.07 13.82z"/>
   <path style="fill:#233862;" d="m2743.9 777.44s12.51 12.09 16.45 21c3.8 8.66 4.94 29.36 1.91 37.58 0 0 19.48-37.89 8.45-56.29-11.7-19.47-26.81-2.29-26.81-2.29z"/>
   <path style="fill:#fff;" d="m2776.9 993.79c-1.77 118.2-0.49 93.5-13.41 104.72-3.12 2.7-11.88 4.31-23.41 5.07-36.24 2.4-100-3.57-102.38-10.27-8.36-23.17-2.45-30.37-9.43-65.85-0.73-3.78-1.63-7.86-2.68-12.31-5.82-24.37-11.48-32.66 9.15-71.81 18.72-35.47 38.15-64.25 39.9-63.21 49.36 29.3 53.35 4.67 53.35 4.67s49.77 51.34 48.91 108.99z"/>
   <path style="fill:#2b478b;" d="m2903.4 1298.6-37.94 102.12a61.33 61.33 0 0 1-20.16-1.84c-9.08-2.63-19.5-9.49-19.5-9.49s10.54-109.65 30.19-172.6z"/>
   <path style="fill:#fff;" d="m2728 884.79s50.79 8.62 56.76 30.48 41.06 150.44 41.06 150.44-25.82 4.64-37.75-7.29-41.51-110.67-41.51-110.67z"/>
   <path style="fill:#ebf3ff;" d="m2740.1 1103.6c-36.24 2.4-100-3.57-102.38-10.27-8.36-23.17-2.45-30.37-9.43-65.85l17.48-49.23s-2.89 54.82 13.28 69.23 66.19 27.84 74 39.88c3.83 5.78 6.33 11.58 7.05 16.24z"/>
   <path style="fill:#ffb27d;" d="m2698.6 1080.5s35.75-8 41.52-4.78 19.87 14.72 21.64 18.75-12.85-3.06-17.6-4.33c-3.08-0.83-11.18 2-15.19 3.33-16.87 5.62-27.21 2.73-27.21 2.73z"/>
   <path style="fill:#fff;" d="m2674.6 880.1s-48 3-64.63 26.14c-23.4 32.63-69.81 171.7-43.21 190.25 29.95 20.89 136.33 5.46 136.33 5.46s3.54-16.54-1.38-24.55-85-20.93-88.66-24.62 46.17-72 46.17-83.12 15.38-89.56 15.38-89.56z"/>
   <path style="fill:#ffb27d;" d="m2741.8 1085.7s7.5 9.66 9.95 10.82a7.35 7.35 0 0 0 4.05 0.86l-5.05-9.09z"/>
   <path style="fill:#ffb27d;" d="m2740.1 1075.7 21.79 10.57s-0.93 1.52-3.61 1.4-9.45-2.6-9.45-2.6z"/>
   <polygon style="fill:#f99746;" points="2751.8 1111.3 2924.1 1111.3 2975.9 982.41 2803.9 982.41"/>
   <polygon style="fill:#ed7d2b;" points="2926.1 1106.3 2698.6 1106.3 2698.6 1111.3 2924.1 1111.3"/>
   <path style="fill:#fff;" d="m2880.6 1046.9c1.3-4.53-1.32-8.2-5.85-8.2s-9.25 3.67-10.55 8.2 1.32 8.21 5.85 8.21 9.25-3.68 10.55-8.21z"/>
   <path style="fill:#cde0fb;" d="m4002.2 1197.5 37 118.87a15.24 15.24 0 0 1 0.68 5.27 15.4 15.4 0 0 1-10.81 14l-206.45 64.32a15.38 15.38 0 0 1-16.89-5.49 15.21 15.21 0 0 1-2.38-4.64l-37-118.83a15.39 15.39 0 0 1 10.12-19.28l206.48-64.3a15.39 15.39 0 0 1 19.25 10.08z"/>
   <path style="fill:#bed7fb;" d="m4039.9 1321.7a15.4 15.4 0 0 1-10.81 14l-206.45 64.32a15.38 15.38 0 0 1-16.89-5.49l103.62-98.87z"/>
   <path style="fill:#dfebfd;" d="m4002.2 1197.5-90.37 117.67-143.57-38.14-1.89-6.08a15.39 15.39 0 0 1 10.12-19.28l206.46-64.25a15.39 15.39 0 0 1 19.25 10.08z"/>
   <path style="fill:#cde0fb;" d="m3280.1 761.92-25.92 99.3a12.71 12.71 0 0 1-15.5 9.08l-172.45-45a12.72 12.72 0 0 1-9.44-11.21 13 13 0 0 1 0.37-4.28l25.91-99.26a12.68 12.68 0 0 1 15.48-9.08l172.45 45a12.69 12.69 0 0 1 9.1 15.45z"/>
   <path style="fill:#bed7fb;" d="m3252.4 865.2a12.7 12.7 0 0 1-13.68 5.1l-172.45-45a12.72 12.72 0 0 1-9.44-11.21l115.6-24z"/>
   <path style="fill:#dfebfd;" d="m3280.1 761.92-114.52 43-83.84-89.25 1.33-5.08a12.68 12.68 0 0 1 15.48-9.08l172.45 45a12.69 12.69 0 0 1 9.1 15.41z"/>
  </g>
 </g>
</svg>
