<svg width="25" height="24" viewBox="0 0 25 24" fill="none" xmlns="http://www.w3.org/2000/svg">
<g clip-path="url(#clip0_13_411)">
<path d="M23.5938 9.91355L13.8044 9.91309C13.3721 9.91309 13.0218 10.2634 13.0218 10.6957V13.823C13.0218 14.2552 13.3721 14.6056 13.8044 14.6056H19.3172C18.7135 16.1722 17.5868 17.4842 16.1494 18.3178L18.5 22.387C22.2707 20.2062 24.5 16.3799 24.5 12.0965C24.5 11.4866 24.455 11.0506 24.3651 10.5597C24.2968 10.1867 23.973 9.91355 23.5938 9.91355Z" fill="#167EE6"/>
<path d="M12.5 19.3043C9.80214 19.3043 7.44696 17.8303 6.18203 15.649L2.11301 17.9944C4.18371 21.5832 8.0628 24 12.5 24C14.6767 24 16.7306 23.4139 18.5 22.3925V22.387L16.1493 18.3177C15.0741 18.9414 13.8299 19.3043 12.5 19.3043Z" fill="#12B347"/>
<path d="M18.5 22.3925V22.387L16.1494 18.3177C15.0741 18.9413 13.83 19.3043 12.5 19.3043V24C14.6767 24 16.7308 23.4139 18.5 22.3925Z" fill="#0F993E"/>
<path d="M5.19566 12C5.19566 10.6702 5.55856 9.42613 6.18205 8.35096L2.11302 6.00562C1.08603 7.76938 0.5 9.81772 0.5 12C0.5 14.1824 1.08603 16.2307 2.11302 17.9945L6.18205 15.6491C5.55856 14.5739 5.19566 13.3298 5.19566 12Z" fill="#FFD500"/>
<path d="M12.5 4.69566C14.2592 4.69566 15.8752 5.32078 17.1374 6.36061C17.4488 6.61711 17.9014 6.59859 18.1866 6.31336L20.4024 4.09758C20.726 3.77395 20.703 3.24422 20.3573 2.94431C18.2425 1.10967 15.4909 0 12.5 0C8.0628 0 4.18371 2.41673 2.11301 6.00558L6.18204 8.35092C7.44696 6.16969 9.80214 4.69566 12.5 4.69566Z" fill="#FF4B26"/>
<path d="M17.1374 6.36061C17.4488 6.61711 17.9015 6.59859 18.1867 6.31336L20.4024 4.09758C20.726 3.77395 20.703 3.24422 20.3573 2.94431C18.2425 1.10963 15.491 0 12.5 0V4.69566C14.2592 4.69566 15.8752 5.32078 17.1374 6.36061Z" fill="#D93F21"/>
</g>
<defs>
<clipPath id="clip0_13_411">
<rect width="24" height="24" fill="white" transform="translate(0.5)"/>
</clipPath>
</defs>
</svg>
